<?xml version="1.0" encoding="utf-8"?>
<!-- Generator: Adobe Illustrator 23.0.0, SVG Export Plug-In . SVG Version: 6.00 Build 0)  -->
<svg version="1.1" id="Layer_1" xmlns="http://www.w3.org/2000/svg" xmlns:xlink="http://www.w3.org/1999/xlink" x="0px" y="0px"
	 viewBox="0 0 206.6 94.7" style="enable-background:new 0 0 206.6 94.7;" xml:space="preserve">
<style type="text/css">
	.st0{fill:#FFFFFF;}
</style>
<title>logodark</title>
<path class="st0" d="M92.3,72.2L81.1,94.7L69.8,72.2c-1.2-2.4-1.5-5.2-0.9-7.8L77.6,28h6.9l8.7,36.4C93.8,67.1,93.5,69.8,92.3,72.2z
	"/>
<path class="st0" d="M93.2,12.1l-5.9,12.4c-0.4,0.9-1.3,1.5-2.3,1.5h-7.7c-1,0-1.9-0.6-2.4-1.5L69,12.1C68.4,11,68.8,9.7,69.7,9
	l9.6-7.6c1-0.8,2.5-0.8,3.5,0L92.4,9C93.4,9.7,93.7,11,93.2,12.1z"/>
<polygon class="st0" points="81.2,26 81.1,26.2 81,26 "/>
<path class="st0" d="M65.7,74.1H2.7c-1.5,0-2.7-1.2-2.7-2.7c0,0,0,0,0,0c0-1.5,1.2-2.7,2.7-2.7h61.6C64.1,70.5,65.2,72.3,65.7,74.1z
	"/>
<path class="st0" d="M206.6,71.4c0,1.5-1.2,2.7-2.7,2.7H96.4c0.5-1.7,1.7-3.5,1.5-5.3h106c0.7,0,1.4,0.3,1.9,0.8
	C206.3,70,206.6,70.7,206.6,71.4z"/>
<path class="st0" d="M13.3,64c-9,0-13.1-3.4-13.1-12.4v-39C0.2,3.4,4.3,0,13.3,0c3.6,0,7.2,0.6,10.5,1.9v12.2h-0.4
	c-1.9-1.9-4.5-3-7.2-3c-3.3,0-4.9,1-4.9,4.5v32.9c0,3.5,1.6,4.4,4.9,4.4c2.7,0,5.3-1.1,7.2-3h0.4v12.3C20.5,63.4,16.9,64.1,13.3,64z
	"/>
<path class="st0" d="M46.6,63.5H35.7l-10-62.9h11.2l3.9,36c0.5,4.8,0.9,11.1,0.9,11.1h0.2c0,0,0.5-6.4,0.9-11.1l3.7-36h10.3
	L46.6,63.5z"/>
<path class="st0" d="M119,63.2h-2.8c-7.5,0-11.1-3.2-11.1-10.8V11.9c0-9,5.7-11.2,13.7-11.2c3.1,0,6.1,0.6,8.9,1.8v8.3h-0.4
	c-2.2-2.3-5.2-3.6-8.3-3.5c-3.9,0-6.9,0.9-6.9,5.4v39.6c0,3.6,1.8,4.7,5.1,4.7c3.6,0,5.1-0.9,5.1-4.7V33h-5.8v-6.5h12.8v25.9
	C129.5,59.8,126.6,63.2,119,63.2z"/>
<path class="st0" d="M149.9,63.2H146c-7.2,0-10.8-3.6-10.8-10.8V1.2h7.1V52c0,4.1,2,4.7,5.7,4.7s5.7-0.6,5.7-4.7V1.2h7.1v51.2
	C160.7,59.6,157,63.2,149.9,63.2z"/>
<path class="st0" d="M167.7,62.7V1.2h7.1v54.9h9.7v6.5H167.7z"/>
<path class="st0" d="M195.9,7.7v18.8H206V33h-10.1v29.6h-7.1V1.2h17.6v6.5H195.9z"/>
</svg>
