<svg width="12" height="12" viewBox="0 0 12 12" fill="none" xmlns="http://www.w3.org/2000/svg">
<g id="3018527_communication_globe_language_multi_speech_icon 1" clip-path="url(#clip0_102_4469)">
<path id="Vector" d="M12 6C12 2.856 9.58125 0.2785 6.5035 0.0225C6.50225 0.02175 6.50125 0.02075 6.5 0.02025V0.0225C6.335 0.00875 6.1685 0 6 0C5.8315 0 5.665 0.00875 5.5 0.02225V0.02025C5.49875 0.021 5.49775 0.022 5.4965 0.02275C2.41875 0.2785 0 2.856 0 6C0 9.144 2.4185 11.7215 5.4965 11.9773C5.49775 11.9783 5.49875 11.9792 5.5 11.98V11.9775C5.665 11.9913 5.8315 12 6 12C6.1685 12 6.335 11.9913 6.5 11.9775V11.98C6.50125 11.9792 6.5025 11.9783 6.50375 11.9773C9.58125 11.7215 12 9.144 12 6ZM1 6C1 5.652 1.036 5.3125 1.10375 4.9845H2.64225C2.601 5.316 2.57825 5.65475 2.57825 6C2.57825 6.52125 2.62925 7.02775 2.721 7.5155H1.23525C1.08325 7.03725 1 6.5285 1 6ZM3.5325 6C3.5325 5.65325 3.559 5.314 3.6085 4.9845H5.5V7.51575H3.70425C3.5935 7.03275 3.5325 6.52525 3.5325 6ZM8.16175 3.9845H6.5V1.37625C7.247 2.02775 7.83025 2.93225 8.16175 3.9845ZM5.5 1.37625V3.98425H3.83825C4.16975 2.93225 4.753 2.02775 5.5 1.37625ZM5.5 8.5155V10.6235C4.8745 10.078 4.36525 9.35425 4.021 8.5155H5.5ZM6.5 10.6235V8.5155H7.979C7.63475 9.35425 7.1255 10.078 6.5 10.6235ZM6.5 7.5155V4.9845H8.3915C8.441 5.31425 8.4675 5.6535 8.4675 6C8.4675 6.52525 8.4065 7.03275 8.2955 7.5155H6.5ZM9.35775 4.9845H10.8965C10.964 5.3125 11 5.652 11 6C11 6.5285 10.9167 7.03725 10.7647 7.5155H9.27925C9.37125 7.02775 9.422 6.521 9.422 6C9.422 5.65475 9.399 5.316 9.35775 4.9845ZM10.5737 3.9845H9.16725C8.91675 3.00825 8.49125 2.1245 7.9315 1.3875C9.11075 1.882 10.058 2.81625 10.5737 3.9845ZM4.0685 1.3875C3.50875 2.12425 3.08325 3.00825 2.83275 3.9845H1.4265C1.942 2.81625 2.88925 1.882 4.0685 1.3875ZM1.68375 8.5155H2.97925C3.236 9.294 3.60625 10.0037 4.06875 10.6125C3.06325 10.1912 2.22875 9.4485 1.68375 8.5155ZM7.9315 10.6125C8.394 10.0037 8.764 9.29425 9.02075 8.5155H10.3162C9.77125 9.4485 8.9365 10.1912 7.9315 10.6125Z" fill="#CFDADA"/>
</g>
<defs>
<clipPath id="clip0_102_4469">
<rect width="12" height="12" fill="white"/>
</clipPath>
</defs>
</svg>
