<svg width="20" height="20" viewBox="0 0 20 20" fill="none" xmlns="http://www.w3.org/2000/svg">
<g id="vuesax/outline/logout">
<g id="logout">
<path id="Vector" d="M12.6996 18.5583H12.5913C8.89127 18.5583 7.10794 17.1 6.79961 13.8333C6.76627 13.4917 7.01627 13.1833 7.36627 13.15C7.69961 13.1167 8.01627 13.375 8.04961 13.7167C8.29127 16.3333 9.52461 17.3083 12.5996 17.3083H12.7079C16.0996 17.3083 17.2996 16.1083 17.2996 12.7167V7.28335C17.2996 3.89168 16.0996 2.69168 12.7079 2.69168H12.5996C9.50794 2.69168 8.27461 3.68335 8.04961 6.35001C8.00794 6.69168 7.71627 6.95001 7.36627 6.91668C7.01627 6.89168 6.76627 6.58335 6.79127 6.24168C7.07461 2.92501 8.86627 1.44168 12.5913 1.44168H12.6996C16.7913 1.44168 18.5413 3.19168 18.5413 7.28335V12.7167C18.5413 16.8083 16.7913 18.5583 12.6996 18.5583Z" fill="#295E56"/>
<path id="Vector_2" d="M12.5001 10.625H3.01678C2.67512 10.625 2.39178 10.3417 2.39178 10C2.39178 9.65836 2.67512 9.37503 3.01678 9.37503H12.5001C12.8418 9.37503 13.1251 9.65836 13.1251 10C13.1251 10.3417 12.8418 10.625 12.5001 10.625Z" fill="#295E56"/>
<path id="Vector_3" d="M4.87534 13.4167C4.717 13.4167 4.55867 13.3584 4.43367 13.2334L1.642 10.4417C1.40034 10.2001 1.40034 9.80006 1.642 9.5584L4.43367 6.76673C4.67534 6.52506 5.07534 6.52506 5.317 6.76673C5.55867 7.0084 5.55867 7.4084 5.317 7.65006L2.967 10.0001L5.317 12.3501C5.55867 12.5917 5.55867 12.9917 5.317 13.2334C5.20034 13.3584 5.03367 13.4167 4.87534 13.4167Z" fill="#295E56"/>
</g>
</g>
</svg>
