<svg width="22" height="18" viewBox="0 0 22 18" fill="none" xmlns="http://www.w3.org/2000/svg">
<path fill-rule="evenodd" clip-rule="evenodd" d="M1.48318 12.1289L0.266182 4.52388C0.227064 4.27963 0.259222 4.02928 0.3588 3.80284C0.458378 3.5764 0.62115 3.38348 0.827602 3.24722C1.03405 3.11096 1.27543 3.03713 1.52278 3.03459C1.77013 3.03204 2.01297 3.10089 2.22218 3.23288L6.03518 5.64088L10.0312 1.06088C10.1519 0.922538 10.3008 0.811645 10.468 0.73566C10.6351 0.659676 10.8166 0.620361 11.0002 0.620361C11.1838 0.620361 11.3653 0.659676 11.5324 0.73566C11.6995 0.811645 11.8485 0.922538 11.9692 1.06088L15.9652 5.64088L19.7782 3.23288C19.9875 3.10135 20.2302 3.03287 20.4774 3.03562C20.7245 3.03837 20.9657 3.11225 21.172 3.24841C21.3783 3.38457 21.541 3.57726 21.6407 3.80345C21.7404 4.02963 21.7729 4.27974 21.7342 4.52388L20.5172 12.1289H1.48318ZM20.2772 13.6289L19.9222 15.8459C19.8539 16.2736 19.6354 16.6631 19.3059 16.9442C18.9763 17.2254 18.5574 17.3798 18.1242 17.3799H3.87618C2.98218 17.3799 2.21918 16.7299 2.07818 15.8459L1.72318 13.6289H20.2772Z" fill="white"/>
</svg>
