<svg width="40" height="40" viewBox="0 0 40 40" fill="none" xmlns="http://www.w3.org/2000/svg">
<g id="svgexport-17 (35) 1" clip-path="url(#clip0_169_10190)">
<g id="Group">
<path id="Vector" d="M26.3026 26.7772C26.3954 25.8023 26.3673 24.8309 26.2264 23.8826L28.4186 22.9055C28.2097 21.8305 27.8794 20.7827 27.4343 19.7822C26.988 18.7825 26.4304 17.8363 25.772 16.9616L23.5784 17.938C22.9612 17.1917 22.256 16.5227 21.4782 15.9457L22.3381 13.7054C20.5159 12.4783 18.4392 11.6803 16.2642 11.3715L15.4035 13.614C14.4391 13.5222 13.4671 13.5478 12.5089 13.6903L11.5375 11.5089C9.38202 11.9345 7.35148 12.8447 5.59945 14.1705L6.56433 16.3376C5.81736 16.9545 5.1479 17.6597 4.57059 18.4377L2.33598 17.5807C1.71964 18.4866 1.20987 19.4605 0.816767 20.4832C0.427164 21.5056 0.153204 22.5684 0 23.6518L2.24036 24.5117C2.14856 25.4761 2.17415 26.4481 2.31657 27.4063L0.124384 28.3827C0.333225 29.4577 0.663436 30.5055 1.10867 31.506C1.55506 32.5058 2.11293 33.452 2.77169 34.3266L4.96387 33.3502C5.58092 34.0971 6.28637 34.7663 7.06474 35.3432L6.20484 37.585C8.02644 38.8133 10.1034 39.6113 12.2788 39.9188L13.1394 37.6763C14.1144 37.7683 15.0857 37.7403 16.0341 37.5994L17.0054 39.7801C19.1612 39.3546 21.192 38.4444 22.9442 37.1184L21.9786 34.9514C22.7256 34.3344 23.3951 33.6292 23.9724 32.8512L26.2056 33.7082C26.8217 32.8025 27.3315 31.8288 27.7248 30.8064C28.1224 29.7711 28.392 28.7077 28.5437 27.6364L26.3026 26.7772ZM20.3473 27.9758C19.7118 29.5631 18.4772 30.8365 16.9104 31.5209C15.3436 32.2053 13.5704 32.2456 11.9741 31.6332C10.3777 31.0208 9.08652 29.8048 8.37951 28.2481C7.67249 26.6913 7.60647 24.9189 8.19571 23.3139C8.81391 21.7025 10.0469 20.4027 11.6235 19.7004C13.2001 18.9981 14.991 18.9508 16.6024 19.569C18.2138 20.1872 19.5137 21.4203 20.2159 22.9968C20.9182 24.5734 20.9655 26.3644 20.3473 27.9758ZM38.4405 8.91188C38.4405 8.47762 38.3959 8.0527 38.3197 7.64L40 6.66937C39.6006 5.14372 38.7994 3.75308 37.6798 2.64234L35.9953 3.61512C35.3458 3.05958 34.5992 2.62908 33.793 2.3454V0.40198C33.0362 0.191732 32.2547 0.0841203 31.4692 0.0820312C30.6647 0.0820312 29.8882 0.199945 29.1455 0.40198V2.34611C28.3395 2.63025 27.5929 3.06071 26.9432 3.61584L25.2579 2.64305C24.1392 3.75438 23.3381 5.1448 22.9378 6.67009L24.6188 7.64072C24.5425 8.05413 24.4972 8.47762 24.4972 8.9126C24.4972 9.34759 24.5425 9.77179 24.6188 10.1845L22.9378 11.1551C23.3379 12.6805 24.139 14.0709 25.2579 15.1821L26.9425 14.2094C27.592 14.7648 28.3387 15.1952 29.1448 15.4791V17.4232C29.8875 17.626 30.664 17.7432 31.4685 17.7432C32.2731 17.7432 33.051 17.6253 33.7923 17.4232V15.4791C34.5983 15.1951 35.3449 14.7646 35.9945 14.2094L37.6791 15.1821C38.7987 14.0714 39.5999 12.6808 39.9993 11.1551L38.319 10.1845C38.3985 9.76492 38.4392 9.33892 38.4405 8.91188ZM31.47 12.166C30.6069 12.1662 29.7791 11.8235 29.1687 11.2134C28.5583 10.6033 28.2153 9.77565 28.2151 8.9126C28.2149 8.04955 28.5576 7.22178 29.1677 6.61138C29.7779 6.00098 30.6055 5.65795 31.4685 5.65776C31.8959 5.65766 32.319 5.74174 32.7139 5.90519C33.1087 6.06864 33.4675 6.30825 33.7698 6.61036C34.072 6.91247 34.3118 7.27115 34.4754 7.66592C34.639 8.06069 34.7233 8.48383 34.7234 8.91116C34.7235 9.3385 34.6394 9.76167 34.4759 10.1565C34.3125 10.5514 34.0729 10.9101 33.7708 11.2124C33.4687 11.5146 33.11 11.7544 32.7152 11.918C32.3204 12.0816 31.8973 12.1659 31.47 12.166Z" fill="#295E57"/>
</g>
</g>
<defs>
<clipPath id="clip0_169_10190">
<rect width="40" height="40" fill="white"/>
</clipPath>
</defs>
</svg>
