<svg width="40" height="40" viewBox="0 0 40 40" fill="none" xmlns="http://www.w3.org/2000/svg">
<g id="svgexport-17 (34) 2">
<g id="Group">
<path id="Vector" d="M34.8727 9.53125C32.0406 9.53125 29.7445 11.8273 29.7445 14.6586C29.7445 18.8539 34.8727 23.5156 34.8727 23.5156C34.8727 23.5156 40 18.8539 40 14.6586C40 11.8273 37.7039 9.53125 34.8727 9.53125ZM36.0445 15.4688H33.7008V13.125H36.0445V15.4688ZM5.12813 9.53125C2.29609 9.53125 0 11.8273 0 14.6586C0 18.8539 5.12813 23.5156 5.12813 23.5156C5.12813 23.5156 10.2555 18.8539 10.2555 14.6586C10.2555 11.8273 7.95937 9.53125 5.12813 9.53125ZM6.3 15.4688H3.95625V13.125H6.3V15.4688ZM1.75547 36.7188H11.7898C11.8406 34.282 12.0516 31.9242 12.407 29.7359H3.62812C2.54922 31.8961 1.91016 34.2609 1.75547 36.7188ZM7.07344 24.9641C6.31563 25.7219 5.63281 26.5336 5.02812 27.3922H12.8594C13.4288 24.8521 14.3488 22.093 15.6734 20.1219C12.4445 20.9016 9.48203 22.5555 7.07344 24.9641ZM24.7352 27.3922C24.0979 24.4565 22.1368 19.551 19.9999 19.6095C17.862 19.5526 15.9023 24.4566 15.2648 27.3922H24.7352ZM14.782 29.7359C14.4086 31.9016 14.1875 34.2633 14.1344 36.7188H25.8656C25.8125 34.2633 25.5914 31.9016 25.218 29.7359H14.782ZM32.9266 24.9641C30.518 22.5555 27.5555 20.9016 24.3266 20.1219C25.652 22.0949 26.5705 24.8502 27.1406 27.3922H34.9719C34.361 26.5257 33.6767 25.7133 32.9266 24.9641ZM36.3719 29.7359H27.593C27.9484 31.9242 28.1594 34.282 28.2102 36.7188H38.2445C38.0898 34.2609 37.4508 31.8961 36.3719 29.7359ZM20 3.28125C17.168 3.28125 14.8727 5.57734 14.8727 8.40859C14.8727 12.6039 20 17.2656 20 17.2656C20 17.2656 25.1273 12.6039 25.1273 8.40859C25.1273 5.57734 22.832 3.28125 20 3.28125ZM21.1719 9.21875H18.8281V6.875H21.1719V9.21875Z" fill="#295E57"/>
</g>
</g>
</svg>
