<svg width="40" height="40" viewBox="0 0 40 40" fill="none" xmlns="http://www.w3.org/2000/svg">
<g id="svgexport-17 (33) 2" clip-path="url(#clip0_169_10184)">
<g id="Group">
<path id="Vector" d="M32.0835 0H7.91683C6.70152 0.000882895 5.53625 0.484052 4.6769 1.3434C3.81755 2.20275 3.33438 3.36803 3.3335 4.58333V35.4167C3.33438 36.632 3.81755 37.7972 4.6769 38.6566C5.53625 39.5159 6.70152 39.9991 7.91683 40H32.0835C33.2988 39.9991 34.4641 39.5159 35.3234 38.6566C36.1828 37.7972 36.6659 36.632 36.6668 35.4167V4.58333C36.6659 3.36803 36.1828 2.20275 35.3234 1.3434C34.4641 0.484052 33.2988 0.000882895 32.0835 0ZM8.3335 14.5833C8.3335 14.2518 8.46519 13.9339 8.69961 13.6995C8.93403 13.465 9.25198 13.3333 9.5835 13.3333H18.7502C19.0817 13.3333 19.3996 13.465 19.634 13.6995C19.8685 13.9339 20.0002 14.2518 20.0002 14.5833V16.25C20.0002 16.5815 19.8685 16.8995 19.634 17.1339C19.3996 17.3683 19.0817 17.5 18.7502 17.5C18.4186 17.5 18.1007 17.3683 17.8663 17.1339C17.6319 16.8995 17.5002 16.5815 17.5002 16.25V15.8333H15.4168V22.5C15.7484 22.5 16.0663 22.6317 16.3007 22.8661C16.5351 23.1005 16.6668 23.4185 16.6668 23.75C16.6668 24.0815 16.5351 24.3995 16.3007 24.6339C16.0663 24.8683 15.7484 25 15.4168 25H12.9168C12.5853 25 12.2674 24.8683 12.0329 24.6339C11.7985 24.3995 11.6668 24.0815 11.6668 23.75C11.6668 23.4185 11.7985 23.1005 12.0329 22.8661C12.2674 22.6317 12.5853 22.5 12.9168 22.5V15.8333H10.8335V16.25C10.8335 16.5815 10.7018 16.8995 10.4674 17.1339C10.233 17.3683 9.91502 17.5 9.5835 17.5C9.25198 17.5 8.93403 17.3683 8.69961 17.1339C8.46519 16.8995 8.3335 16.5815 8.3335 16.25V14.5833ZM30.4168 35H9.5835C9.25198 35 8.93403 34.8683 8.69961 34.6339C8.46519 34.3995 8.3335 34.0815 8.3335 33.75C8.3335 33.4185 8.46519 33.1005 8.69961 32.8661C8.93403 32.6317 9.25198 32.5 9.5835 32.5H30.4168C30.7484 32.5 31.0663 32.6317 31.3007 32.8661C31.5351 33.1005 31.6668 33.4185 31.6668 33.75C31.6668 34.0815 31.5351 34.3995 31.3007 34.6339C31.0663 34.8683 30.7484 35 30.4168 35ZM30.4168 30H9.5835C9.25198 30 8.93403 29.8683 8.69961 29.6339C8.46519 29.3995 8.3335 29.0815 8.3335 28.75C8.3335 28.4185 8.46519 28.1005 8.69961 27.8661C8.93403 27.6317 9.25198 27.5 9.5835 27.5H30.4168C30.7484 27.5 31.0663 27.6317 31.3007 27.8661C31.5351 28.1005 31.6668 28.4185 31.6668 28.75C31.6668 29.0815 31.5351 29.3995 31.3007 29.6339C31.0663 29.8683 30.7484 30 30.4168 30ZM30.4168 25H24.5835C24.252 25 23.934 24.8683 23.6996 24.6339C23.4652 24.3995 23.3335 24.0815 23.3335 23.75C23.3335 23.4185 23.4652 23.1005 23.6996 22.8661C23.934 22.6317 24.252 22.5 24.5835 22.5H30.4168C30.7484 22.5 31.0663 22.6317 31.3007 22.8661C31.5351 23.1005 31.6668 23.4185 31.6668 23.75C31.6668 24.0815 31.5351 24.3995 31.3007 24.6339C31.0663 24.8683 30.7484 25 30.4168 25ZM30.4168 20.4167H24.5835C24.252 20.4167 23.934 20.285 23.6996 20.0505C23.4652 19.8161 23.3335 19.4982 23.3335 19.1667C23.3335 18.8351 23.4652 18.5172 23.6996 18.2828C23.934 18.0484 24.252 17.9167 24.5835 17.9167H30.4168C30.7484 17.9167 31.0663 18.0484 31.3007 18.2828C31.5351 18.5172 31.6668 18.8351 31.6668 19.1667C31.6668 19.4982 31.5351 19.8161 31.3007 20.0505C31.0663 20.285 30.7484 20.4167 30.4168 20.4167ZM30.4168 15.8333H24.5835C24.252 15.8333 23.934 15.7016 23.6996 15.4672C23.4652 15.2328 23.3335 14.9149 23.3335 14.5833C23.3335 14.2518 23.4652 13.9339 23.6996 13.6995C23.934 13.465 24.252 13.3333 24.5835 13.3333H30.4168C30.7484 13.3333 31.0663 13.465 31.3007 13.6995C31.5351 13.9339 31.6668 14.2518 31.6668 14.5833C31.6668 14.9149 31.5351 15.2328 31.3007 15.4672C31.0663 15.7016 30.7484 15.8333 30.4168 15.8333Z" fill="#295E57"/>
</g>
</g>
<defs>
<clipPath id="clip0_169_10184">
<rect width="40" height="40" fill="white"/>
</clipPath>
</defs>
</svg>
