<svg width="45" height="45" viewBox="0 0 45 45" fill="none" xmlns="http://www.w3.org/2000/svg">
<g id="vuesax/bold/export">
<g id="export">
<path id="Vector" d="M22.5 3.75C12.15 3.75 3.75 12.15 3.75 22.5C3.75 32.85 12.15 41.25 22.5 41.25C32.85 41.25 41.25 32.85 41.25 22.5C41.25 12.15 32.85 3.75 22.5 3.75ZM32.3438 23.1187C32.3438 23.8875 31.7062 24.525 30.9375 24.525C30.1688 24.525 29.5312 23.8875 29.5312 23.1187V17.4563L15.0562 31.9313C14.775 32.2125 14.4187 32.3438 14.0625 32.3438C13.7063 32.3438 13.35 32.2125 13.0687 31.9313C12.525 31.3875 12.525 30.4875 13.0687 29.9438L27.5437 15.4688H21.8813C21.1125 15.4688 20.475 14.8313 20.475 14.0625C20.475 13.2937 21.1125 12.6562 21.8813 12.6562H30.9375C31.7062 12.6562 32.3438 13.2937 32.3438 14.0625V23.1187Z" fill="#295E57"/>
</g>
</g>
</svg>
