<svg width="40" height="40" viewBox="0 0 40 40" fill="none" xmlns="http://www.w3.org/2000/svg">
<g id="vuesax/bold/money-send">
<g id="money-send">
<path id="Vector" d="M17.0835 16.7167C17.0835 17.6167 17.3335 17.7501 17.9002 17.9501L18.7502 18.2501V15.4167H18.2502C17.6168 15.4167 17.0835 16.0001 17.0835 16.7167Z" fill="#295E57"/>
<path id="Vector_2" d="M21.25 24.5833H21.75C22.4 24.5833 22.9167 24 22.9167 23.2833C22.9167 22.3833 22.6667 22.25 22.1 22.05L21.25 21.75V24.5833Z" fill="#295E57"/>
<path id="Vector_3" d="M32.6335 9.13325L29.2168 12.5499C28.9668 12.7999 28.6502 12.9166 28.3335 12.9166C28.0168 12.9166 27.7002 12.7999 27.4502 12.5499C26.9668 12.0666 26.9668 11.2666 27.4502 10.7833L30.8668 7.36659C27.9335 4.86659 24.1502 3.33325 20.0002 3.33325C10.8002 3.33325 3.3335 10.7999 3.3335 19.9999C3.3335 29.1999 10.8002 36.6666 20.0002 36.6666C29.2002 36.6666 36.6668 29.1999 36.6668 19.9999C36.6668 15.8499 35.1335 12.0666 32.6335 9.13325ZM22.9168 19.6999C23.9835 20.0833 25.4168 20.8499 25.4168 23.2999C25.4168 25.3833 23.7668 27.0999 21.7502 27.0999H21.2502V27.5166C21.2502 28.1999 20.6835 28.7666 20.0002 28.7666C19.3168 28.7666 18.7502 28.1999 18.7502 27.5166V27.0999H18.6168C16.4002 27.0999 14.5835 25.2333 14.5835 22.9333C14.5835 22.2333 15.1502 21.6666 15.8335 21.6666C16.5168 21.6666 17.0835 22.2333 17.0835 22.9166C17.0835 23.8333 17.7668 24.5833 18.6168 24.5833H18.7502V20.8833L17.0835 20.2999C16.0168 19.9166 14.5835 19.1499 14.5835 16.6999C14.5835 14.6166 16.2335 12.8999 18.2502 12.8999H18.7502V12.4999C18.7502 11.8166 19.3168 11.2499 20.0002 11.2499C20.6835 11.2499 21.2502 11.8166 21.2502 12.4999V12.9166H21.3835C23.6002 12.9166 25.4168 14.7833 25.4168 17.0833C25.4168 17.7666 24.8502 18.3333 24.1668 18.3333C23.4835 18.3333 22.9168 17.7666 22.9168 17.0833C22.9168 16.1666 22.2335 15.4166 21.3835 15.4166H21.2502V19.1166L22.9168 19.6999Z" fill="#295E57"/>
<path id="Vector_4" d="M37.8167 2.84992C37.6833 2.54992 37.45 2.29992 37.1333 2.16659C36.9833 2.11659 36.8333 2.08325 36.6667 2.08325H30C29.3167 2.08325 28.75 2.64992 28.75 3.33325C28.75 4.01659 29.3167 4.58325 30 4.58325H33.65L30.8667 7.36659C31.5 7.91659 32.0833 8.49992 32.6333 9.13325L35.4167 6.34992V9.99992C35.4167 10.6833 35.9833 11.2499 36.6667 11.2499C37.35 11.2499 37.9167 10.6833 37.9167 9.99992V3.33325C37.9167 3.16659 37.8833 3.01659 37.8167 2.84992Z" fill="#295E57"/>
</g>
</g>
</svg>
