<svg width="22" height="22" viewBox="0 0 22 22" fill="none" xmlns="http://www.w3.org/2000/svg">
<g id="message-question">
<g id="vuesax/bold/message-question">
<g id="message-question_2">
<path id="Vector" d="M15.5835 2.22754H6.41683C3.66683 2.22754 1.8335 4.06087 1.8335 6.81087V12.3109C1.8335 15.0609 3.66683 16.8942 6.41683 16.8942V18.8467C6.41683 19.58 7.23266 20.02 7.83766 19.6075L11.9168 16.8942H15.5835C18.3335 16.8942 20.1668 15.0609 20.1668 12.3109V6.81087C20.1668 4.06087 18.3335 2.22754 15.5835 2.22754ZM11.0002 13.3834C10.6152 13.3834 10.3127 13.0717 10.3127 12.6959C10.3127 12.32 10.6152 12.0084 11.0002 12.0084C11.3852 12.0084 11.6877 12.32 11.6877 12.6959C11.6877 13.0717 11.3852 13.3834 11.0002 13.3834ZM12.1552 9.5792C11.7977 9.81754 11.6877 9.97337 11.6877 10.23V10.4225C11.6877 10.7984 11.376 11.11 11.0002 11.11C10.6243 11.11 10.3127 10.7984 10.3127 10.4225V10.23C10.3127 9.1667 11.0918 8.6442 11.3852 8.44254C11.7243 8.21337 11.8343 8.05754 11.8343 7.8192C11.8343 7.36087 11.4585 6.98504 11.0002 6.98504C10.5418 6.98504 10.166 7.36087 10.166 7.8192C10.166 8.19504 9.85433 8.5067 9.4785 8.5067C9.10266 8.5067 8.791 8.19504 8.791 7.8192C8.791 6.60004 9.781 5.61004 11.0002 5.61004C12.2193 5.61004 13.2093 6.60004 13.2093 7.8192C13.2093 8.8642 12.4393 9.3867 12.1552 9.5792Z" fill="#999"/>
</g>
</g>
</g>
</svg>
